<svg width="60" height="60" viewBox="0 0 60 60" fill="none" xmlns="http://www.w3.org/2000/svg">
<g clip-path="url(#clip0_9_75)">
<path fill-rule="evenodd" clip-rule="evenodd" d="M46.0355 17.5H55C56.3807 17.5 57.5 18.6193 57.5 20C57.5 21.3807 56.3807 22.5 55 22.5H40C38.6193 22.5 37.5 21.3807 37.5 20V5C37.5 3.6193 38.6193 2.5 40 2.5C41.3807 2.5 42.5 3.6193 42.5 5V13.9645L55.7323 0.732233C56.7085 -0.244078 58.2915 -0.244078 59.2677 0.732233C60.244 1.70855 60.244 3.29145 59.2677 4.26778L46.0355 17.5ZM42.5 46.0355V55C42.5 56.3807 41.3807 57.5 40 57.5C38.6193 57.5 37.5 56.3807 37.5 55V40C37.5 38.6193 38.6193 37.5 40 37.5H55C56.3807 37.5 57.5 38.6193 57.5 40C57.5 41.3807 56.3807 42.5 55 42.5H46.0355L59.2677 55.7323C60.244 56.7085 60.244 58.2915 59.2677 59.2677C58.2915 60.244 56.7085 60.244 55.7323 59.2677L42.5 46.0355ZM17.5 13.9645V5C17.5 3.6193 18.6193 2.5 20 2.5C21.3807 2.5 22.5 3.6193 22.5 5V20C22.5 21.3807 21.3807 22.5 20 22.5H5C3.6193 22.5 2.5 21.3807 2.5 20C2.5 18.6193 3.6193 17.5 5 17.5H13.9645L0.732233 4.26778C-0.244078 3.29145 -0.244078 1.70855 0.732233 0.732233C1.70855 -0.244078 3.29145 -0.244078 4.26778 0.732233L17.5 13.9645ZM13.9645 42.5H5C3.6193 42.5 2.5 41.3807 2.5 40C2.5 38.6193 3.6193 37.5 5 37.5H20C21.3807 37.5 22.5 38.6193 22.5 40V55C22.5 56.3807 21.3807 57.5 20 57.5C18.6193 57.5 17.5 56.3807 17.5 55V46.0355L4.26778 59.2677C3.29145 60.244 1.70855 60.244 0.732233 59.2677C-0.244078 58.2915 -0.244078 56.7085 0.732233 55.7323L13.9645 42.5Z" fill="#AA007A"/>
</g>
<defs>
<clipPath id="clip0_9_75">
<rect width="60" height="60" fill="white"/>
</clipPath>
</defs>
</svg>
