<svg width="60" height="60" viewBox="0 0 60 60" fill="none" xmlns="http://www.w3.org/2000/svg">
<path d="M34.8359 3.01172C35.5046 3.07967 36.0822 3.45099 36.4336 3.98438L51.293 17.1934C52.008 17.5515 52.5 18.2885 52.5 19.1426V55.79L52.4893 56.0127C52.4704 56.1979 52.4255 56.3753 52.3633 56.5439C52.3547 56.5671 52.3472 56.5905 52.3379 56.6133C52.3216 56.6532 52.3027 56.6918 52.2842 56.7305C52.2734 56.753 52.2635 56.7758 52.252 56.7979C52.2318 56.8365 52.2099 56.8739 52.1875 56.9111C52.1757 56.9308 52.1638 56.9504 52.1514 56.9697C52.1275 57.0068 52.1022 57.0427 52.0762 57.0781C52.0616 57.098 52.0465 57.1174 52.0312 57.1367C52.0076 57.1667 51.9832 57.1959 51.958 57.2246C51.9369 57.2487 51.9157 57.2727 51.8936 57.2959C51.8695 57.321 51.8446 57.3452 51.8193 57.3691C51.7973 57.3901 51.7749 57.4106 51.752 57.4307C51.7208 57.4579 51.689 57.4843 51.6562 57.5098C51.6366 57.5251 51.6168 57.5401 51.5967 57.5547C51.5656 57.5772 51.5342 57.5992 51.502 57.6201C51.4739 57.6383 51.445 57.655 51.416 57.6719C51.3857 57.6896 51.3555 57.7074 51.3242 57.7236C51.2976 57.7375 51.2704 57.7499 51.2432 57.7627C51.2071 57.7797 51.1709 57.7965 51.1338 57.8115C51.1075 57.8221 51.0805 57.8312 51.0537 57.8408C51.0184 57.8535 50.9834 57.8671 50.9473 57.8779C50.9097 57.8892 50.8714 57.8979 50.833 57.9072C50.8025 57.9146 50.7722 57.9226 50.7412 57.9287C50.7096 57.9349 50.6776 57.9385 50.6455 57.9434C50.6073 57.9491 50.5691 57.9562 50.5303 57.96C50.5147 57.9615 50.499 57.9617 50.4834 57.9629C50.4289 57.967 50.3738 57.9717 50.3184 57.9717H10.1807L9.95801 57.96C8.85828 57.8481 8.00015 56.9192 8 55.79C8 55.6134 8.02289 55.4418 8.0625 55.2773C8.04755 55.1752 8.03811 55.0711 8.03809 54.9648V6.10254L8.04883 5.88281C8.05414 5.83056 8.06229 5.77861 8.07129 5.72754C8.02626 5.55295 8 5.37028 8 5.18164C8.00016 3.97703 8.977 3 10.1816 3H34.6133L34.8359 3.01172ZM12.3252 7.36328V53.6084H48.1367V19.1426H34.6133V7.36328H12.3252ZM22.6523 48.2393H18.6523V32.0234H22.6523V48.2393ZM30.6514 48.2393H26.6514L26.6523 28.5332H30.6523L30.6514 48.2393ZM38.6523 48.2393H34.6523L34.6514 37.2588H38.6514L38.6523 48.2393Z" fill="#AA007A"/>
</svg>
