<svg width="60" height="60" viewBox="0 0 60 60" fill="none" xmlns="http://www.w3.org/2000/svg">
<path d="M9.25 2.00098H34.2109L34.4385 2.0127C35.123 2.08213 35.7148 2.46151 36.0742 3.00781L51.2637 16.5107C51.9961 16.8764 52.5 17.6316 52.5 18.5059V55.9756C52.5 56.1654 52.4734 56.3494 52.4287 56.5254C52.4207 56.5571 52.4137 56.589 52.4043 56.6201C52.3922 56.6602 52.3775 56.6992 52.3633 56.7383C52.3535 56.7651 52.3447 56.7921 52.334 56.8184C52.3218 56.8481 52.3083 56.8771 52.2949 56.9062C52.2789 56.9411 52.2629 56.9759 52.2451 57.0098C52.2322 57.0343 52.2179 57.058 52.2041 57.082C52.1805 57.1232 52.156 57.1636 52.1299 57.2031C52.117 57.2227 52.1034 57.2416 52.0898 57.2607C52.0652 57.2956 52.0402 57.33 52.0137 57.3633C51.9923 57.3901 51.9698 57.4157 51.9473 57.4414C51.9243 57.4676 51.9011 57.4934 51.877 57.5186C51.8559 57.5405 51.8344 57.5619 51.8125 57.583C51.7839 57.6105 51.7547 57.6371 51.7246 57.6631C51.7006 57.6838 51.6762 57.7039 51.6514 57.7236C51.6214 57.7473 51.5907 57.7698 51.5596 57.792C51.5348 57.8096 51.5099 57.8271 51.4844 57.8438C51.4527 57.8644 51.4205 57.8842 51.3877 57.9033C51.3598 57.9195 51.3323 57.9362 51.3037 57.9512C51.267 57.9704 51.2293 57.9876 51.1914 58.0049C51.1661 58.0164 51.141 58.0285 51.1152 58.0391C51.0765 58.055 51.0368 58.0683 50.9971 58.082C50.9692 58.0917 50.9415 58.1018 50.9131 58.1104C50.8662 58.1245 50.8186 58.1364 50.7705 58.1475C50.7503 58.1521 50.7304 58.158 50.71 58.1621C50.6656 58.171 50.6205 58.1764 50.5752 58.1826C50.5456 58.1867 50.5162 58.1924 50.4863 58.1953C50.415 58.2022 50.3427 58.207 50.2695 58.207L9.23047 58.2061L9.00195 58.1953C8.96639 58.1917 8.93154 58.184 8.89648 58.1787C8.85852 58.173 8.82052 58.1687 8.7832 58.1611C8.77368 58.1592 8.76436 58.1564 8.75488 58.1543C8.69502 58.1413 8.63609 58.1261 8.57812 58.1084C8.55503 58.1013 8.53254 58.0927 8.50977 58.085C8.46495 58.0697 8.42043 58.0542 8.37695 58.0361C8.34674 58.0236 8.31761 58.0089 8.28809 57.9951C8.25768 57.9809 8.22691 57.9677 8.19727 57.9521C8.16633 57.9359 8.1365 57.918 8.10645 57.9004C8.07144 57.8799 8.03669 57.8592 8.00293 57.8369C7.98301 57.8237 7.9638 57.8097 7.94434 57.7959C7.90878 57.7707 7.87382 57.7449 7.83984 57.7178C7.81725 57.6997 7.7953 57.681 7.77344 57.6621C7.74115 57.6342 7.70934 57.6059 7.67871 57.5762C7.66052 57.5585 7.64258 57.5407 7.625 57.5225C7.59636 57.4927 7.56896 57.4619 7.54199 57.4307C7.52129 57.4067 7.50112 57.3823 7.48145 57.3574C7.45777 57.3275 7.43523 57.2968 7.41309 57.2656C7.39587 57.2414 7.37857 57.2173 7.3623 57.1924C7.3398 57.1579 7.31846 57.1227 7.29785 57.0869C7.28316 57.0614 7.26858 57.0359 7.25488 57.0098C7.23712 56.9759 7.22112 56.9411 7.20508 56.9062C7.19194 56.8777 7.17797 56.8495 7.16602 56.8203C7.15044 56.7823 7.13752 56.7432 7.12402 56.7041C7.11392 56.6749 7.10266 56.646 7.09375 56.6162C7.08481 56.5863 7.07802 56.5558 7.07031 56.5254C7.06031 56.4859 7.04986 56.4465 7.04199 56.4062C7.01478 56.267 7 56.1228 7 55.9756V4.23047L7.01172 4.00293C7.01883 3.93289 7.02953 3.86387 7.04297 3.7959C7.05562 3.73195 7.07185 3.66928 7.08984 3.60742C7.09189 3.60038 7.09261 3.59295 7.09473 3.58594C7.10681 3.54588 7.1215 3.50685 7.13574 3.46777C7.14549 3.44101 7.1543 3.41397 7.16504 3.3877C7.17891 3.35377 7.19547 3.32115 7.21094 3.28809C7.22658 3.25464 7.24156 3.22099 7.25879 3.18848C7.27034 3.16668 7.28268 3.14538 7.29492 3.12402C7.31851 3.08286 7.34306 3.04239 7.36914 3.00293C7.38205 2.9834 7.39568 2.96441 7.40918 2.94531C7.43432 2.90975 7.46017 2.8748 7.4873 2.84082C7.50535 2.81823 7.52408 2.79628 7.54297 2.77441C7.57086 2.74212 7.59923 2.71032 7.62891 2.67969C7.64653 2.6615 7.66439 2.64356 7.68262 2.62598C7.71232 2.59732 7.74316 2.56995 7.77441 2.54297C7.7984 2.52226 7.8228 2.50211 7.84766 2.48242C7.87757 2.45873 7.90833 2.43622 7.93945 2.41406C7.96424 2.39642 7.98912 2.37895 8.01465 2.3623C8.04634 2.34164 8.07855 2.32181 8.11133 2.30273C8.13916 2.28655 8.16674 2.26988 8.19531 2.25488C8.232 2.23562 8.26976 2.21841 8.30762 2.20117C8.33291 2.18965 8.358 2.17758 8.38379 2.16699C8.42248 2.1511 8.46221 2.13776 8.50195 2.12402C8.52983 2.11439 8.55757 2.10425 8.58594 2.0957C8.63631 2.08052 8.68745 2.06731 8.73926 2.05566C8.75519 2.05208 8.77105 2.04816 8.78711 2.04492C8.83343 2.03558 8.88042 2.02889 8.92773 2.02246C8.95597 2.01863 8.98414 2.01351 9.0127 2.01074C9.08431 2.00381 9.15703 2 9.23047 2C9.23699 2 9.24349 2.00092 9.25 2.00098ZM11.4609 6.46191V53.7451H48.0391V18.5049H34.2109V6.46191H11.4609ZM21.7402 32.3828H37.7803L37.917 32.3896C37.9357 32.3916 37.9542 32.3948 37.9727 32.3975C38.0181 32.404 38.0626 32.4128 38.1064 32.4238C38.128 32.4293 38.1497 32.434 38.1709 32.4404C38.1907 32.4465 38.21 32.454 38.2295 32.4609C38.2478 32.4675 38.2663 32.4732 38.2842 32.4805C38.3092 32.4907 38.3332 32.503 38.3574 32.5146C38.3715 32.5214 38.3856 32.5279 38.3994 32.5352C38.4153 32.5435 38.4308 32.5526 38.4463 32.5615C38.4705 32.5755 38.4943 32.59 38.5176 32.6055C38.5299 32.6136 38.5417 32.6223 38.5537 32.6309C38.5712 32.6433 38.5886 32.6557 38.6055 32.6689C38.6233 32.683 38.6411 32.697 38.6582 32.7119C38.677 32.7283 38.6951 32.7453 38.7129 32.7627C38.7201 32.7698 38.7273 32.7769 38.7344 32.7842C38.7578 32.8081 38.7802 32.8328 38.8018 32.8584C38.808 32.8658 38.8142 32.8733 38.8203 32.8809C38.8414 32.907 38.8608 32.9343 38.8799 32.9619C38.8837 32.9675 38.8878 32.9729 38.8916 32.9785C38.9337 33.0415 38.9709 33.1078 39.002 33.1777C39.0066 33.1881 39.0113 33.1985 39.0156 33.209C39.0261 33.2342 39.035 33.2601 39.0439 33.2861C39.0494 33.3021 39.0557 33.3178 39.0605 33.334C39.0974 33.4564 39.1182 33.5863 39.1182 33.7207C39.1182 33.7266 39.1173 33.7324 39.1172 33.7383V39.0547C39.1173 39.0609 39.1182 39.067 39.1182 39.0732C39.1182 39.0791 39.1173 39.085 39.1172 39.0908V44.4072C39.1173 44.4134 39.1182 44.4196 39.1182 44.4258C39.1182 44.4315 39.1173 44.4377 39.1172 44.4434V49.7793C39.117 50.5182 38.5183 51.1182 37.7793 51.1182C37.7728 51.1182 37.7663 51.1173 37.7598 51.1172H16.3672L16.2305 51.1104C16.1426 51.1014 16.0576 51.0827 15.9756 51.0576C15.9653 51.0545 15.9555 51.0503 15.9453 51.0469C15.913 51.0361 15.8808 51.0258 15.8496 51.0127C15.838 51.0078 15.8268 51.0022 15.8154 50.9971C15.7919 50.9864 15.7689 50.9749 15.7461 50.9629C15.7306 50.9547 15.7153 50.9462 15.7002 50.9375C15.6753 50.9231 15.6508 50.9085 15.627 50.8926C15.62 50.8879 15.6133 50.8827 15.6064 50.8779C15.5798 50.8594 15.5535 50.8406 15.5283 50.8203C15.5163 50.8106 15.5049 50.8002 15.4932 50.79C15.4759 50.7751 15.4589 50.7599 15.4424 50.7441C15.4288 50.7311 15.4154 50.7177 15.4023 50.7041C15.3846 50.6856 15.3672 50.6669 15.3506 50.6475C15.3411 50.6364 15.3324 50.6247 15.3232 50.6133C15.3044 50.5897 15.2858 50.5659 15.2686 50.541C15.2629 50.5329 15.2574 50.5248 15.252 50.5166C15.2345 50.4902 15.2178 50.4632 15.2021 50.4355C15.1965 50.4255 15.1909 50.4155 15.1855 50.4053C15.1713 50.3784 15.1579 50.3511 15.1455 50.3232C15.1405 50.3119 15.1356 50.3005 15.1309 50.2891C15.1039 50.2237 15.0819 50.156 15.0654 50.0859C15.0616 50.0698 15.0579 50.0535 15.0547 50.0371C15.0384 49.9537 15.0293 49.8675 15.0293 49.7793C15.0293 49.7722 15.0302 49.7649 15.0303 49.7578V33.7207C15.0303 33.4436 15.1146 33.1862 15.2588 32.9727C15.3069 32.9014 15.3614 32.835 15.4219 32.7744C15.5129 32.6834 15.6164 32.6048 15.7305 32.543C15.9199 32.4401 16.1374 32.3818 16.3682 32.3818C16.3747 32.3818 16.3812 32.3827 16.3877 32.3828H21.7012C21.7076 32.3827 21.7142 32.3818 21.7207 32.3818C21.7272 32.3818 21.7337 32.3827 21.7402 32.3828ZM17.7061 48.4414H20.3828V45.7637H17.7061V48.4414ZM23.0586 48.4414H36.4414V45.7637H23.0586V48.4414ZM17.7061 43.0879H20.3828V40.4111H17.7061V43.0879ZM23.0586 43.0879H36.4414V40.4111H23.0586V43.0879ZM17.7061 37.7354H20.3828V35.0586H17.7061V37.7354ZM23.0586 37.7354H36.4414V35.0586H23.0586V37.7354Z" fill="#AA007A"/>
</svg>
