<svg width="60" height="60" viewBox="0 0 60 60" fill="none" xmlns="http://www.w3.org/2000/svg">
<path d="M34.8496 2.01172C35.5191 2.07957 36.0974 2.45141 36.4492 2.98535L51.3164 16.2002C52.0318 16.5585 52.5234 17.2969 52.5234 18.1514V54.8174C52.5234 55.083 52.4736 55.3368 52.3867 55.5723C52.3782 55.5954 52.3706 55.6188 52.3613 55.6416C52.3436 55.6849 52.3231 55.7267 52.3027 55.7686C52.2942 55.7861 52.2863 55.804 52.2773 55.8213C52.2549 55.8645 52.2312 55.9068 52.2061 55.9482C52.1961 55.9646 52.1862 55.981 52.1758 55.9971C52.1538 56.0312 52.1302 56.0639 52.1064 56.0967C52.0878 56.1223 52.0695 56.1481 52.0498 56.1729C52.0272 56.2013 52.0034 56.2286 51.9795 56.2559C51.9612 56.2767 51.9429 56.2973 51.9238 56.3174C51.895 56.3478 51.8655 56.3775 51.835 56.4062C51.816 56.4241 51.796 56.4408 51.7764 56.458C51.747 56.4838 51.7173 56.509 51.6865 56.5332C51.664 56.5509 51.6414 56.5682 51.6182 56.585C51.5844 56.6094 51.5499 56.6327 51.5146 56.6553C51.4953 56.6676 51.4758 56.6796 51.4561 56.6914C51.4204 56.7127 51.3846 56.7337 51.3477 56.7529C51.3182 56.7683 51.288 56.7819 51.2578 56.7959C51.2273 56.8101 51.1972 56.8251 51.166 56.8379C51.1378 56.8494 51.1088 56.8588 51.0801 56.8691C51.0401 56.8836 51 56.8981 50.959 56.9102C50.9403 56.9157 50.9212 56.9198 50.9023 56.9248C50.8556 56.9372 50.8087 56.9496 50.7607 56.959C50.7327 56.9644 50.7042 56.9673 50.6758 56.9717C50.6353 56.9779 50.5949 56.9853 50.5537 56.9893C50.5527 56.9894 50.5518 56.9901 50.5508 56.9902L50.3408 57H10.1826C9.97939 57 9.78335 56.9699 9.59668 56.918C9.58304 56.9142 9.56919 56.9113 9.55566 56.9072C9.51327 56.8945 9.47193 56.8794 9.43066 56.8643C9.40626 56.8553 9.38141 56.8477 9.35742 56.8379C9.31752 56.8216 9.27891 56.8028 9.24023 56.7842C9.21775 56.7734 9.1949 56.7635 9.17285 56.752C9.13684 56.7331 9.10217 56.7122 9.06738 56.6914C9.04313 56.6769 9.01875 56.6628 8.99512 56.6475C8.96645 56.6288 8.93885 56.6088 8.91113 56.5889C8.88218 56.568 8.85307 56.5476 8.8252 56.5254C8.79842 56.5041 8.7728 56.4815 8.74707 56.459C8.72259 56.4376 8.6983 56.416 8.6748 56.3936C8.65067 56.3705 8.62755 56.3464 8.60449 56.3223C8.57887 56.2954 8.55353 56.2684 8.5293 56.2402C8.51088 56.2188 8.49318 56.1969 8.47559 56.1748C8.4508 56.1437 8.42738 56.1116 8.4043 56.0791C8.38656 56.0541 8.36826 56.0296 8.35156 56.0039C8.33296 55.9753 8.3161 55.9456 8.29883 55.916C8.28134 55.8861 8.26413 55.856 8.24805 55.8252C8.23035 55.7913 8.21418 55.7566 8.19824 55.7217C8.18712 55.6973 8.17528 55.6733 8.16504 55.6484C8.14788 55.6068 8.13277 55.5644 8.11816 55.5215C8.10987 55.4972 8.1012 55.4729 8.09375 55.4482C8.08012 55.403 8.06932 55.3569 8.05859 55.3105C8.05384 55.29 8.04714 55.2698 8.04297 55.249C8.01501 55.1096 8 54.9651 8 54.8174V4.18262L8.01172 3.95996C8.02618 3.81747 8.0542 3.67895 8.09473 3.5459C8.11165 3.49037 8.13219 3.43637 8.15332 3.38281C8.15612 3.37572 8.15826 3.36838 8.16113 3.36133C8.17667 3.32315 8.19432 3.28609 8.21191 3.24902C8.2248 3.22187 8.23702 3.19449 8.25098 3.16797C8.26547 3.14044 8.28126 3.11373 8.29688 3.08691C8.31646 3.05327 8.33612 3.01977 8.35742 2.9873C8.37399 2.96206 8.3916 2.93759 8.40918 2.91309C8.4306 2.8832 8.45272 2.85393 8.47559 2.8252C8.49461 2.8013 8.51419 2.77794 8.53418 2.75488C8.55835 2.72699 8.58287 2.69948 8.6084 2.67285C8.63184 2.64842 8.65612 2.62489 8.68066 2.60156C8.70372 2.57965 8.72698 2.55801 8.75098 2.53711C8.77802 2.51357 8.8058 2.49096 8.83398 2.46875C8.86139 2.44714 8.88952 2.42655 8.91797 2.40625C8.94194 2.38916 8.96556 2.3716 8.99023 2.35547C9.02334 2.33381 9.05748 2.31382 9.0918 2.29395C9.11915 2.27811 9.14672 2.26271 9.1748 2.24805C9.20524 2.23215 9.23632 2.2176 9.26758 2.20312C9.29676 2.18961 9.32561 2.17533 9.35547 2.16309C9.39672 2.14616 9.43897 2.13161 9.48145 2.11719C9.50384 2.10959 9.52612 2.10161 9.54883 2.09473C9.60015 2.07916 9.65223 2.06552 9.70508 2.05371C9.71971 2.05044 9.73429 2.04692 9.74902 2.04395C9.88919 2.01567 10.0341 2.00001 10.1826 2H34.627L34.8496 2.01172ZM12.3652 6.36523V52.6348H48.1582V18.1514H34.627V6.36523H12.3652ZM31.3584 43.917C32.4587 44.029 33.3174 44.958 33.3174 46.0879C33.3172 47.2176 32.4587 48.1469 31.3584 48.2588L31.1348 48.2705H18.9131C17.7078 48.2705 16.7307 47.2931 16.7305 46.0879C16.7305 44.8825 17.7077 43.9053 18.9131 43.9053H31.1348L31.3584 43.917ZM40.0889 36.0596C41.1891 36.1717 42.0479 37.1007 42.0479 38.2305C42.0478 39.3602 41.189 40.2892 40.0889 40.4014L39.8652 40.4131H18.9131C17.7077 40.4131 16.7305 39.4358 16.7305 38.2305C16.7305 37.0251 17.7077 36.0479 18.9131 36.0479H39.8652L40.0889 36.0596ZM40.0889 28.2021C41.189 28.3142 42.0477 29.2434 42.0479 30.373C42.0479 31.5028 41.189 32.4318 40.0889 32.5439L39.8652 32.5557H18.9131C17.7077 32.5557 16.7305 31.5784 16.7305 30.373C16.7306 29.1678 17.7078 28.1904 18.9131 28.1904H39.8652L40.0889 28.2021Z" fill="#AA007A"/>
</svg>
