<svg width="60" height="60" viewBox="0 0 60 60" fill="none" xmlns="http://www.w3.org/2000/svg">
<path d="M8 53.0577L8 5.1346" stroke="#AA007A" stroke-width="4.20443" stroke-linecap="round"/>
<path d="M8 4.23262H31.9615" stroke="#AA007A" stroke-width="4.27885" stroke-linecap="round"/>
<path d="M16.5576 46.2115L16.5576 25.6731" stroke="#AA007A" stroke-width="4.27885" stroke-linecap="square"/>
<path d="M23.4038 46.2115L23.4038 30.8077" stroke="#AA007A" stroke-width="4.27885" stroke-linecap="square"/>
<path d="M30.25 46.2115L30.25 34.2308" stroke="#AA007A" stroke-width="4.27885" stroke-linecap="square"/>
<path d="M47.3655 53.8672L8.0001 53.8672" stroke="#AA007A" stroke-width="4.27885" stroke-linecap="round"/>
<path d="M47.3655 17.9249L47.3655 53.8672" stroke="#AA007A" stroke-width="4.27885" stroke-linecap="round"/>
<mask id="path-8-outside-1_10_358" maskUnits="userSpaceOnUse" x="26.0889" y="-1.49088" width="24.2311" height="25.9857" fill="black">
<rect fill="white" x="26.0889" y="-1.49088" width="24.2311" height="25.9857"/>
<path d="M32.8173 3.37677L48.2208 17.069L32.8172 17.0691L32.8173 3.37677Z"/>
</mask>
<path d="M32.8173 3.37677L48.2208 17.069L32.8172 17.0691L32.8173 3.37677Z" fill="#AA007A"/>
<path d="M32.8173 3.37677L33.3859 2.73716C33.134 2.51327 32.7742 2.45805 32.4668 2.5961C32.1594 2.73414 31.9616 3.03976 31.9616 3.37676L32.8173 3.37677ZM48.2208 17.069L48.2208 17.9248C48.5761 17.9248 48.8944 17.7053 49.0207 17.3731C49.1469 17.041 49.0549 16.6655 48.7893 16.4294L48.2208 17.069ZM32.8172 17.0691L31.9615 17.0691L31.9615 17.9249L32.8172 17.9249L32.8172 17.0691ZM32.8173 3.37677L32.2488 4.01637L47.6522 17.7086L48.2208 17.069L48.7893 16.4294L33.3859 2.73716L32.8173 3.37677ZM48.2208 17.069L48.2207 16.2133L32.8172 16.2133L32.8172 17.0691L32.8172 17.9249L48.2208 17.9248L48.2208 17.069ZM32.8172 17.0691L33.673 17.0691L33.6731 3.37677L32.8173 3.37677L31.9616 3.37676L31.9615 17.0691L32.8172 17.0691Z" fill="#AA007A" mask="url(#path-8-outside-1_10_358)"/>
<path d="M36.6509 33H50.678L58.113 40.4061V57.764C58.113 58.6761 57.3734 59.4149 56.4621 59.4149H36.6509C35.7396 59.4149 35 58.6761 35 57.764V34.6509C35 33.7388 35.7397 33 36.6509 33Z" fill="#AA007A"/>
<path d="M57.8646 41.4738L50.1887 41.805C51.2894 41.805 49.5284 41.805 50.1887 41.805L50.4593 34.0611L57.8646 41.4738Z" fill="white"/>
<path d="M52.4486 50.017C52.7971 50.017 52.9677 49.7133 52.9677 49.419C52.9677 49.1142 52.7898 48.8198 52.4486 48.8198H50.4641C50.0761 48.8198 49.8598 49.1412 49.8598 49.4959V54.373C49.8598 54.8078 50.1073 55.0491 50.4422 55.0491C50.7751 55.0491 51.0237 54.8078 51.0237 54.373V53.0344H52.224C52.5964 53.0344 52.7826 52.7296 52.7826 52.427C52.7826 52.1306 52.5964 51.8361 52.224 51.8361H51.0237V50.017H52.4486ZM45.7408 48.8198H44.2888C43.8946 48.8198 43.6148 49.0903 43.6148 49.4917V54.3772C43.6148 54.8754 44.0173 55.0314 44.3054 55.0314H45.8292C47.6327 55.0314 48.8237 53.8447 48.8237 52.013C48.8227 50.0763 47.7015 48.8198 45.7408 48.8198ZM45.8106 53.827H44.9254V50.0243H45.7232C46.9308 50.0243 47.456 50.8346 47.456 51.9527C47.456 52.9991 46.9401 53.827 45.8106 53.827ZM40.4914 48.8198H39.0529C38.6462 48.8198 38.4194 49.0881 38.4194 49.4959V54.373C38.4194 54.8078 38.6794 55.0491 39.0289 55.0491C39.3783 55.0491 39.6384 54.8078 39.6384 54.373V52.9491H40.5401C41.653 52.9491 42.5715 52.1606 42.5715 50.8927C42.5716 49.652 41.6854 48.8198 40.4914 48.8198ZM40.4675 51.805H39.6385V49.965H40.4675C40.9792 49.965 41.3048 50.3644 41.3048 50.8855C41.3037 51.4057 40.9792 51.805 40.4675 51.805Z" fill="white"/>
</svg>
