<svg width="60" height="60" viewBox="0 0 60 60" fill="none" xmlns="http://www.w3.org/2000/svg">
<path d="M30 6C30.7041 6 31.4329 6.39068 32.4648 7.73828C33.4973 9.08652 34.6437 11.1384 36.2432 14.0078L37.0625 15.4775C37.9189 17.0135 38.4749 18.0521 39.3828 18.7412C40.2968 19.4351 41.4283 19.67 43.0898 20.0459L44.6807 20.4053C47.7891 21.1086 50.0039 21.6128 51.5439 22.2197C53.0648 22.8191 53.6694 23.4204 53.9014 24.166C54.1367 24.9226 53.9795 25.8015 53.0781 27.2334C52.1699 28.676 50.6574 30.4489 48.54 32.9248L47.4551 34.1934C46.318 35.523 45.5483 36.3935 45.2051 37.4971C44.8636 38.5962 44.9951 39.7648 45.167 41.54L45.3311 43.2324C45.651 46.5345 45.8777 48.902 45.8008 50.6309C45.7239 52.3577 45.3521 53.1522 44.7578 53.6035C44.1795 54.0425 43.3772 54.1679 41.8027 53.7168C40.2156 53.262 38.1398 52.3096 35.2295 50.9697L33.7393 50.2842V50.2832C32.1874 49.5687 31.1377 49.0615 30 49.0615C28.8623 49.0615 27.8126 49.5687 26.2607 50.2832V50.2842L24.7705 50.9697C21.8602 52.3096 19.7844 53.262 18.1973 53.7168C16.6228 54.1679 15.8204 54.0424 15.2422 53.6035C14.6479 53.1522 14.2761 52.3576 14.1992 50.6309C14.1223 48.902 14.349 46.5345 14.6689 43.2324L14.833 41.54C15.005 39.7649 15.1368 38.5964 14.7949 37.4971C14.4517 36.3935 13.682 35.523 12.5449 34.1934L11.46 32.9248C9.34261 30.4489 7.83008 28.676 6.92188 27.2334C6.02046 25.8015 5.86333 24.9226 6.09863 24.166C6.33061 23.4204 6.93521 22.8191 8.45605 22.2197C9.99602 21.6128 12.2108 21.1086 15.3193 20.4053L16.9102 20.0459C18.5716 19.67 19.7032 19.4351 20.6172 18.7412C21.5249 18.0521 22.0811 17.0139 22.9375 15.4775L23.7568 14.0078C25.3564 11.1384 26.5027 9.08652 27.5352 7.73828C28.5671 6.39067 29.2959 6 30 6Z" fill="#FEE000" stroke="#FEE000" stroke-width="2"/>
</svg>
