<svg width="60" height="60" viewBox="0 0 60 60" fill="none" xmlns="http://www.w3.org/2000/svg">
<path d="M8 53.0577L8 5.1346" stroke="#AA007A" stroke-width="4.20443" stroke-linecap="round"/>
<path d="M8 4.23259H31.9615" stroke="#AA007A" stroke-width="4.27885" stroke-linecap="round"/>
<path d="M17 29.0961H37.5385" stroke="#AA007A" stroke-width="4.27885" stroke-linecap="square"/>
<path d="M17 35.9423L26.4424 36" stroke="#AA007A" stroke-width="4.27885" stroke-linecap="square"/>
<path d="M17 43H27" stroke="#AA007A" stroke-width="4.27885" stroke-linecap="square"/>
<path d="M47.3655 53.8672L8.0001 53.8672" stroke="#AA007A" stroke-width="4.27885" stroke-linecap="round"/>
<path d="M47.3655 17.9249L47.3655 53.8672" stroke="#AA007A" stroke-width="4.27885" stroke-linecap="round"/>
<mask id="path-8-outside-1_10_330" maskUnits="userSpaceOnUse" x="26.0889" y="-1.4909" width="24.2311" height="25.9857" fill="black">
<rect fill="white" x="26.0889" y="-1.4909" width="24.2311" height="25.9857"/>
<path d="M32.8173 3.37675L48.2208 17.069L32.8172 17.0691L32.8173 3.37675Z"/>
</mask>
<path d="M32.8173 3.37675L48.2208 17.069L32.8172 17.0691L32.8173 3.37675Z" fill="#AA007A"/>
<path d="M32.8173 3.37675L33.3859 2.73715C33.134 2.51326 32.7742 2.45803 32.4668 2.59608C32.1594 2.73413 31.9616 3.03975 31.9616 3.37674L32.8173 3.37675ZM48.2208 17.069L48.2208 17.9248C48.5761 17.9248 48.8944 17.7052 49.0207 17.3731C49.1469 17.041 49.0549 16.6655 48.7893 16.4294L48.2208 17.069ZM32.8172 17.0691L31.9615 17.0691L31.9615 17.9249L32.8172 17.9249L32.8172 17.0691ZM32.8173 3.37675L32.2488 4.01635L47.6522 17.7086L48.2208 17.069L48.7893 16.4294L33.3859 2.73715L32.8173 3.37675ZM48.2208 17.069L48.2207 16.2132L32.8172 16.2133L32.8172 17.0691L32.8172 17.9249L48.2208 17.9248L48.2208 17.069ZM32.8172 17.0691L33.673 17.0691L33.6731 3.37676L32.8173 3.37675L31.9616 3.37674L31.9615 17.0691L32.8172 17.0691Z" fill="#AA007A" mask="url(#path-8-outside-1_10_330)"/>
<path d="M31.0379 33H45.065L52.4999 40.4061V57.764C52.4999 58.6761 51.7604 59.4149 50.849 59.4149H31.0379C30.1265 59.4149 29.387 58.6761 29.387 57.764V34.6509C29.387 33.7388 30.1266 33 31.0379 33Z" fill="#AA007A"/>
<path d="M52.2516 41.4738L44.5757 41.805C45.6763 41.805 43.9153 41.805 44.5757 41.805L44.8463 34.0611L52.2516 41.4738Z" fill="white"/>
<path d="M46.8356 50.017C47.1841 50.017 47.3546 49.7133 47.3546 49.419C47.3546 49.1142 47.1767 48.8198 46.8356 48.8198H44.851C44.463 48.8198 44.2467 49.1412 44.2467 49.4959V54.373C44.2467 54.8078 44.4943 55.0491 44.8292 55.0491C45.162 55.0491 45.4107 54.8078 45.4107 54.373V53.0344H46.611C46.9833 53.0344 47.1695 52.7296 47.1695 52.427C47.1695 52.1306 46.9833 51.8361 46.611 51.8361H45.4107V50.017H46.8356ZM40.1278 48.8198H38.6758C38.2816 48.8198 38.0017 49.0903 38.0017 49.4917V54.3772C38.0017 54.8754 38.4042 55.0314 38.6924 55.0314H40.2162C42.0197 55.0314 43.2106 53.8447 43.2106 52.013C43.2097 50.0763 42.0885 48.8198 40.1278 48.8198ZM40.1976 53.827H39.3124V50.0243H40.1102C41.3178 50.0243 41.843 50.8346 41.843 51.9527C41.843 52.9991 41.327 53.827 40.1976 53.827ZM34.8783 48.8198H33.4399C33.0332 48.8198 32.8064 49.0881 32.8064 49.4959V54.373C32.8064 54.8078 33.0664 55.0491 33.4159 55.0491C33.7653 55.0491 34.0253 54.8078 34.0253 54.373V52.9491H34.9271C36.04 52.9491 36.9585 52.1606 36.9585 50.8927C36.9586 49.652 36.0724 48.8198 34.8783 48.8198ZM34.8544 51.805H34.0254V49.965H34.8544C35.3662 49.965 35.6917 50.3644 35.6917 50.8855C35.6907 51.4057 35.3662 51.805 34.8544 51.805Z" fill="white"/>
</svg>
